<mxfile host="65bd71144e">
    <diagram name="ページ1" id="wdXBag7NcmLRrbB8cPSW">
        <mxGraphModel dx="3547" dy="5135" grid="1" gridSize="10" guides="1" tooltips="1" connect="1" arrows="1" fold="1" page="1" pageScale="1" pageWidth="827" pageHeight="1169" math="0" shadow="0">
            <root>
                <mxCell id="0"/>
                <mxCell id="1" parent="0"/>
                <UserObject label="" mermaidData="{&#xa;  &quot;data&quot;: &quot;stateDiagram-v2\n    [*] --&gt; IDLE\n    IDLE --&gt; TASK_START: New Task Detected\n    TASK_START --&gt; RUNNING: Initiate Task&lt;br/&gt;(disable Smart Charge,&lt;br/&gt;obtain runtimeId)\n    RUNNING --&gt; LOW_BATTERY: Battery ≤ 10%\n    RUNNING --&gt; RECOVERY: AMR Abnormal Detected\n    RUNNING --&gt; COMPLETED: Callback \&quot;Success\&quot; Received\n    LOW_BATTERY --&gt; PAUSE_TASK: Pause Task\n    PAUSE_TASK --&gt; CHARGING: Start Charging Process\n    CHARGING --&gt; RUNNING: Battery ≥ ChargeThreshold (e.g., 30%)\n    COMPLETED --&gt; CHARGING_PROMO: Battery ≤ 50%\n    COMPLETED --&gt; IDLE: Battery &gt; 50%\n    CHARGING_PROMO --&gt; IDLE: Battery ≥ 50%\n    RECOVERY --&gt; RUNNING: Recovery Successful\n    RECOVERY --&gt; IDLE: Recovery Failed\n&quot;&#xa;}" id="6">
                    <mxCell style="shape=image;noLabel=1;verticalAlign=top;imageAspect=1;image=data:image/svg+xml,PHN2ZyBhcmlhLXJvbGVkZXNjcmlwdGlvbj0ic3RhdGVEaWFncmFtIiByb2xlPSJncmFwaGljcy1kb2N1bWVudCBkb2N1bWVudCIgdmlld0JveD0iLTIgOS41MzY3NDMxNjQwNjI1ZS03IDEwNjUuNjY4MjEyODkwNjI1IDc3MC42MzU4MDMyMjI2NTYyIiBzdHlsZT0ibWF4LXdpZHRoOiAxMDY1LjY2ODIxMjg5MDYyNXB4OyIgY2xhc3M9InN0YXRlZGlhZ3JhbSIgeG1sbnM9Imh0dHA6Ly93d3cudzMub3JnLzIwMDAvc3ZnIiB3aWR0aD0iMTAwJSIgaWQ9ImdlTWVybWFpZE91dHB1dC0xNzQyMTg3Mjg0OTQ2Ij48c3R5bGU+I2dlTWVybWFpZE91dHB1dC0xNzQyMTg3Mjg0OTQ2e2ZvbnQtZmFtaWx5OiJ0cmVidWNoZXQgbXMiLHZlcmRhbmEsYXJpYWwsc2Fucy1zZXJpZjtmb250LXNpemU6MTZweDtmaWxsOiMwMDAwMDA7fSNnZU1lcm1haWRPdXRwdXQtMTc0MjE4NzI4NDk0NiAuZXJyb3ItaWNvbntmaWxsOiM1NTIyMjI7fSNnZU1lcm1haWRPdXRwdXQtMTc0MjE4NzI4NDk0NiAuZXJyb3ItdGV4dHtmaWxsOiM1NTIyMjI7c3Ryb2tlOiM1NTIyMjI7fSNnZU1lcm1haWRPdXRwdXQtMTc0MjE4NzI4NDk0NiAuZWRnZS10aGlja25lc3Mtbm9ybWFse3N0cm9rZS13aWR0aDoxcHg7fSNnZU1lcm1haWRPdXRwdXQtMTc0MjE4NzI4NDk0NiAuZWRnZS10aGlja25lc3MtdGhpY2t7c3Ryb2tlLXdpZHRoOjMuNXB4O30jZ2VNZXJtYWlkT3V0cHV0LTE3NDIxODcyODQ5NDYgLmVkZ2UtcGF0dGVybi1zb2xpZHtzdHJva2UtZGFzaGFycmF5OjA7fSNnZU1lcm1haWRPdXRwdXQtMTc0MjE4NzI4NDk0NiAuZWRnZS10aGlja25lc3MtaW52aXNpYmxle3N0cm9rZS13aWR0aDowO2ZpbGw6bm9uZTt9I2dlTWVybWFpZE91dHB1dC0xNzQyMTg3Mjg0OTQ2IC5lZGdlLXBhdHRlcm4tZGFzaGVke3N0cm9rZS1kYXNoYXJyYXk6Mzt9I2dlTWVybWFpZE91dHB1dC0xNzQyMTg3Mjg0OTQ2IC5lZGdlLXBhdHRlcm4tZG90dGVke3N0cm9rZS1kYXNoYXJyYXk6Mjt9I2dlTWVybWFpZE91dHB1dC0xNzQyMTg3Mjg0OTQ2IC5tYXJrZXJ7ZmlsbDojNjY2O3N0cm9rZTojNjY2O30jZ2VNZXJtYWlkT3V0cHV0LTE3NDIxODcyODQ5NDYgLm1hcmtlci5jcm9zc3tzdHJva2U6IzY2Njt9I2dlTWVybWFpZE91dHB1dC0xNzQyMTg3Mjg0OTQ2IHN2Z3tmb250LWZhbWlseToidHJlYnVjaGV0IG1zIix2ZXJkYW5hLGFyaWFsLHNhbnMtc2VyaWY7Zm9udC1zaXplOjE2cHg7fSNnZU1lcm1haWRPdXRwdXQtMTc0MjE4NzI4NDk0NiBwe21hcmdpbjowO30jZ2VNZXJtYWlkT3V0cHV0LTE3NDIxODcyODQ5NDYgZGVmcyAjc3RhdGVkaWFncmFtLWJhcmJFbmR7ZmlsbDojMDAwO3N0cm9rZTojMDAwO30jZ2VNZXJtYWlkT3V0cHV0LTE3NDIxODcyODQ5NDYgZy5zdGF0ZUdyb3VwIHRleHR7ZmlsbDojOTk5O3N0cm9rZTpub25lO2ZvbnQtc2l6ZToxMHB4O30jZ2VNZXJtYWlkT3V0cHV0LTE3NDIxODcyODQ5NDYgZy5zdGF0ZUdyb3VwIHRleHR7ZmlsbDojMDAwMDAwO3N0cm9rZTpub25lO2ZvbnQtc2l6ZToxMHB4O30jZ2VNZXJtYWlkT3V0cHV0LTE3NDIxODcyODQ5NDYgZy5zdGF0ZUdyb3VwIC5zdGF0ZS10aXRsZXtmb250LXdlaWdodDpib2xkZXI7ZmlsbDojMTExMTExO30jZ2VNZXJtYWlkT3V0cHV0LTE3NDIxODcyODQ5NDYgZy5zdGF0ZUdyb3VwIHJlY3R7ZmlsbDojZWVlO3N0cm9rZTojOTk5O30jZ2VNZXJtYWlkT3V0cHV0LTE3NDIxODcyODQ5NDYgZy5zdGF0ZUdyb3VwIGxpbmV7c3Ryb2tlOiM2NjY7c3Ryb2tlLXdpZHRoOjE7fSNnZU1lcm1haWRPdXRwdXQtMTc0MjE4NzI4NDk0NiAudHJhbnNpdGlvbntzdHJva2U6IzAwMDtzdHJva2Utd2lkdGg6MTtmaWxsOm5vbmU7fSNnZU1lcm1haWRPdXRwdXQtMTc0MjE4NzI4NDk0NiAuc3RhdGVHcm91cCAuY29tcG9zaXR7ZmlsbDojZmZmZmZmO2JvcmRlci1ib3R0b206MXB4O30jZ2VNZXJtYWlkT3V0cHV0LTE3NDIxODcyODQ5NDYgLnN0YXRlR3JvdXAgLmFsdC1jb21wb3NpdHtmaWxsOiNlMGUwZTA7Ym9yZGVyLWJvdHRvbToxcHg7fSNnZU1lcm1haWRPdXRwdXQtMTc0MjE4NzI4NDk0NiAuc3RhdGUtbm90ZXtzdHJva2U6Izk5OTtmaWxsOiM2NjY7fSNnZU1lcm1haWRPdXRwdXQtMTc0MjE4NzI4NDk0NiAuc3RhdGUtbm90ZSB0ZXh0e2ZpbGw6I2ZmZjtzdHJva2U6bm9uZTtmb250LXNpemU6MTBweDt9I2dlTWVybWFpZE91dHB1dC0xNzQyMTg3Mjg0OTQ2IC5zdGF0ZUxhYmVsIC5ib3h7c3Ryb2tlOm5vbmU7c3Ryb2tlLXdpZHRoOjA7ZmlsbDojZWVlO29wYWNpdHk6MC41O30jZ2VNZXJtYWlkT3V0cHV0LTE3NDIxODcyODQ5NDYgLmVkZ2VMYWJlbCAubGFiZWwgcmVjdHtmaWxsOiNlZWU7b3BhY2l0eTowLjU7fSNnZU1lcm1haWRPdXRwdXQtMTc0MjE4NzI4NDk0NiAuZWRnZUxhYmVse2JhY2tncm91bmQtY29sb3I6d2hpdGU7dGV4dC1hbGlnbjpjZW50ZXI7fSNnZU1lcm1haWRPdXRwdXQtMTc0MjE4NzI4NDk0NiAuZWRnZUxhYmVsIHB7YmFja2dyb3VuZC1jb2xvcjp3aGl0ZTt9I2dlTWVybWFpZE91dHB1dC0xNzQyMTg3Mjg0OTQ2IC5lZGdlTGFiZWwgcmVjdHtvcGFjaXR5OjAuNTtiYWNrZ3JvdW5kLWNvbG9yOndoaXRlO2ZpbGw6d2hpdGU7fSNnZU1lcm1haWRPdXRwdXQtMTc0MjE4NzI4NDk0NiAuZWRnZUxhYmVsIC5sYWJlbCB0ZXh0e2ZpbGw6IzAwMDAwMDt9I2dlTWVybWFpZE91dHB1dC0xNzQyMTg3Mjg0OTQ2IC5sYWJlbCBkaXYgLmVkZ2VMYWJlbHtjb2xvcjojMDAwMDAwO30jZ2VNZXJtYWlkT3V0cHV0LTE3NDIxODcyODQ5NDYgLnN0YXRlTGFiZWwgdGV4dHtmaWxsOiMxMTExMTE7Zm9udC1zaXplOjEwcHg7Zm9udC13ZWlnaHQ6Ym9sZDt9I2dlTWVybWFpZE91dHB1dC0xNzQyMTg3Mjg0OTQ2IC5ub2RlIGNpcmNsZS5zdGF0ZS1zdGFydHtmaWxsOiMyMjI7c3Ryb2tlOiMyMjI7fSNnZU1lcm1haWRPdXRwdXQtMTc0MjE4NzI4NDk0NiAubm9kZSAuZm9yay1qb2lue2ZpbGw6IzIyMjtzdHJva2U6IzIyMjt9I2dlTWVybWFpZE91dHB1dC0xNzQyMTg3Mjg0OTQ2IC5ub2RlIGNpcmNsZS5zdGF0ZS1lbmR7ZmlsbDpoc2woMCwgMCUsIDgzLjMzMzMzMzMzMzMlKTtzdHJva2U6I2ZmZmZmZjtzdHJva2Utd2lkdGg6MS41O30jZ2VNZXJtYWlkT3V0cHV0LTE3NDIxODcyODQ5NDYgLmVuZC1zdGF0ZS1pbm5lcntmaWxsOiNmZmZmZmY7c3Ryb2tlLXdpZHRoOjEuNTt9I2dlTWVybWFpZE91dHB1dC0xNzQyMTg3Mjg0OTQ2IC5ub2RlIHJlY3R7ZmlsbDojZWVlO3N0cm9rZTojMDAwO3N0cm9rZS13aWR0aDoxcHg7fSNnZU1lcm1haWRPdXRwdXQtMTc0MjE4NzI4NDk0NiAubm9kZSBwb2x5Z29ue2ZpbGw6I2VlZTtzdHJva2U6IzAwMDtzdHJva2Utd2lkdGg6MXB4O30jZ2VNZXJtYWlkT3V0cHV0LTE3NDIxODcyODQ5NDYgI3N0YXRlZGlhZ3JhbS1iYXJiRW5ke2ZpbGw6IzY2Njt9I2dlTWVybWFpZE91dHB1dC0xNzQyMTg3Mjg0OTQ2IC5zdGF0ZWRpYWdyYW0tY2x1c3RlciByZWN0e2ZpbGw6I2VlZTtzdHJva2U6IzAwMDtzdHJva2Utd2lkdGg6MXB4O30jZ2VNZXJtYWlkT3V0cHV0LTE3NDIxODcyODQ5NDYgLmNsdXN0ZXItbGFiZWwsI2dlTWVybWFpZE91dHB1dC0xNzQyMTg3Mjg0OTQ2IC5ub2RlTGFiZWx7Y29sb3I6IzExMTExMTt9I2dlTWVybWFpZE91dHB1dC0xNzQyMTg3Mjg0OTQ2IC5zdGF0ZWRpYWdyYW0tY2x1c3RlciByZWN0Lm91dGVye3J4OjVweDtyeTo1cHg7fSNnZU1lcm1haWRPdXRwdXQtMTc0MjE4NzI4NDk0NiAuc3RhdGVkaWFncmFtLXN0YXRlIC5kaXZpZGVye3N0cm9rZTojMDAwO30jZ2VNZXJtYWlkT3V0cHV0LTE3NDIxODcyODQ5NDYgLnN0YXRlZGlhZ3JhbS1zdGF0ZSAudGl0bGUtc3RhdGV7cng6NXB4O3J5OjVweDt9I2dlTWVybWFpZE91dHB1dC0xNzQyMTg3Mjg0OTQ2IC5zdGF0ZWRpYWdyYW0tY2x1c3Rlci5zdGF0ZWRpYWdyYW0tY2x1c3RlciAuaW5uZXJ7ZmlsbDojZmZmZmZmO30jZ2VNZXJtYWlkT3V0cHV0LTE3NDIxODcyODQ5NDYgLnN0YXRlZGlhZ3JhbS1jbHVzdGVyLnN0YXRlZGlhZ3JhbS1jbHVzdGVyLWFsdCAuaW5uZXJ7ZmlsbDojZjRmNGY0O30jZ2VNZXJtYWlkT3V0cHV0LTE3NDIxODcyODQ5NDYgLnN0YXRlZGlhZ3JhbS1jbHVzdGVyIC5pbm5lcntyeDowO3J5OjA7fSNnZU1lcm1haWRPdXRwdXQtMTc0MjE4NzI4NDk0NiAuc3RhdGVkaWFncmFtLXN0YXRlIHJlY3QuYmFzaWN7cng6NXB4O3J5OjVweDt9I2dlTWVybWFpZE91dHB1dC0xNzQyMTg3Mjg0OTQ2IC5zdGF0ZWRpYWdyYW0tc3RhdGUgcmVjdC5kaXZpZGVye3N0cm9rZS1kYXNoYXJyYXk6MTAsMTA7ZmlsbDojZjRmNGY0O30jZ2VNZXJtYWlkT3V0cHV0LTE3NDIxODcyODQ5NDYgLm5vdGUtZWRnZXtzdHJva2UtZGFzaGFycmF5OjU7fSNnZU1lcm1haWRPdXRwdXQtMTc0MjE4NzI4NDk0NiAuc3RhdGVkaWFncmFtLW5vdGUgcmVjdHtmaWxsOiM2NjY7c3Ryb2tlOiM5OTk7c3Ryb2tlLXdpZHRoOjFweDtyeDowO3J5OjA7fSNnZU1lcm1haWRPdXRwdXQtMTc0MjE4NzI4NDk0NiAuc3RhdGVkaWFncmFtLW5vdGUgcmVjdHtmaWxsOiM2NjY7c3Ryb2tlOiM5OTk7c3Ryb2tlLXdpZHRoOjFweDtyeDowO3J5OjA7fSNnZU1lcm1haWRPdXRwdXQtMTc0MjE4NzI4NDk0NiAuc3RhdGVkaWFncmFtLW5vdGUgdGV4dHtmaWxsOiNmZmY7fSNnZU1lcm1haWRPdXRwdXQtMTc0MjE4NzI4NDk0NiAuc3RhdGVkaWFncmFtLW5vdGUgLm5vZGVMYWJlbHtjb2xvcjojZmZmO30jZ2VNZXJtYWlkT3V0cHV0LTE3NDIxODcyODQ5NDYgLnN0YXRlZGlhZ3JhbSAuZWRnZUxhYmVse2NvbG9yOnJlZDt9I2dlTWVybWFpZE91dHB1dC0xNzQyMTg3Mjg0OTQ2ICNkZXBlbmRlbmN5U3RhcnQsI2dlTWVybWFpZE91dHB1dC0xNzQyMTg3Mjg0OTQ2ICNkZXBlbmRlbmN5RW5ke2ZpbGw6IzY2NjtzdHJva2U6IzY2NjtzdHJva2Utd2lkdGg6MTt9I2dlTWVybWFpZE91dHB1dC0xNzQyMTg3Mjg0OTQ2IC5zdGF0ZWRpYWdyYW1UaXRsZVRleHR7dGV4dC1hbmNob3I6bWlkZGxlO2ZvbnQtc2l6ZToxOHB4O2ZpbGw6IzAwMDAwMDt9I2dlTWVybWFpZE91dHB1dC0xNzQyMTg3Mjg0OTQ2IDpyb290ey0tbWVybWFpZC1mb250LWZhbWlseToidHJlYnVjaGV0IG1zIix2ZXJkYW5hLGFyaWFsLHNhbnMtc2VyaWY7fTwvc3R5bGU+PGc+PGRlZnM+PG1hcmtlciBvcmllbnQ9ImF1dG8iIG1hcmtlclVuaXRzPSJ1c2VyU3BhY2VPblVzZSIgbWFya2VySGVpZ2h0PSIxNCIgbWFya2VyV2lkdGg9IjIwIiByZWZZPSI3IiByZWZYPSIxOSIgaWQ9ImdlTWVybWFpZE91dHB1dC0xNzQyMTg3Mjg0OTQ2X3N0YXRlRGlhZ3JhbS1iYXJiRW5kIj48cGF0aCBkPSJNIDE5LDcgTDksMTMgTDE0LDcgTDksMSBaIj48L3BhdGg+PC9tYXJrZXI+PC9kZWZzPjxnIGNsYXNzPSJyb290Ij48ZyBjbGFzcz0iY2x1c3RlcnMiPjwvZz48ZyBjbGFzcz0iZWRnZVBhdGhzIj48cGF0aCBtYXJrZXItZW5kPSJ1cmwoI2dlTWVybWFpZE91dHB1dC0xNzQyMTg3Mjg0OTQ2X3N0YXRlRGlhZ3JhbS1iYXJiRW5kKSIgc3R5bGU9IjtmaWxsOm5vbmUiIGNsYXNzPSJlZGdlLXRoaWNrbmVzcy1ub3JtYWwgZWRnZS1wYXR0ZXJuLXNvbGlkIHRyYW5zaXRpb24iIGlkPSJlZGdlMCIgZD0iTTY5NC4wMDUsMjJMNjk0LjAwNSwyNi4xNjdDNjk0LjAwNSwzMC4zMzMsNjk0LjAwNSwzOC42NjcsNjk0LjAwNSw0N0M2OTQuMDA1LDU1LjMzMyw2OTQuMDA1LDYzLjY2Nyw2OTQuMDA1LDY3LjgzM0w2OTQuMDA1LDcyIj48L3BhdGg+PHBhdGggbWFya2VyLWVuZD0idXJsKCNnZU1lcm1haWRPdXRwdXQtMTc0MjE4NzI4NDk0Nl9zdGF0ZURpYWdyYW0tYmFyYkVuZCkiIHN0eWxlPSI7ZmlsbDpub25lIiBjbGFzcz0iZWRnZS10aGlja25lc3Mtbm9ybWFsIGVkZ2UtcGF0dGVybi1zb2xpZCB0cmFuc2l0aW9uIiBpZD0iZWRnZTEiIGQ9Ik02NzAuNTM2LDk2LjQ0OEw2MjQuOTA4LDEwNS4wODRDNTc5LjI4LDExMy43MjEsNDg4LjAyMywxMzAuOTk0LDQ0Mi4zOTUsMTQ1LjY3NEMzOTYuNzY3LDE2MC4zNTQsMzk2Ljc2NywxNzIuNDM5LDM5Ni43NjcsMTc4LjQ4MkwzOTYuNzY3LDE4NC41MjUiPjwvcGF0aD48cGF0aCBtYXJrZXItZW5kPSJ1cmwoI2dlTWVybWFpZE91dHB1dC0xNzQyMTg3Mjg0OTQ2X3N0YXRlRGlhZ3JhbS1iYXJiRW5kKSIgc3R5bGU9IjtmaWxsOm5vbmUiIGNsYXNzPSJlZGdlLXRoaWNrbmVzcy1ub3JtYWwgZWRnZS1wYXR0ZXJuLXNvbGlkIHRyYW5zaXRpb24iIGlkPSJlZGdlMiIgZD0iTTM5Ni43NjcsMjI0LjUzNkwzOTYuNzY3LDIzMy41MTJDMzk2Ljc2NywyNDIuNDg4LDM5Ni43NjcsMjYwLjQ0LDM5Ni43NjcsMjc4LjM5M0MzOTYuNzY3LDI5Ni4zNDUsMzk2Ljc2NywzMTQuMjk4LDM5Ni43NjcsMzIzLjI3NEwzOTYuNzY3LDMzMi4yNSI+PC9wYXRoPjxwYXRoIG1hcmtlci1lbmQ9InVybCgjZ2VNZXJtYWlkT3V0cHV0LTE3NDIxODcyODQ5NDZfc3RhdGVEaWFncmFtLWJhcmJFbmQpIiBzdHlsZT0iO2ZpbGw6bm9uZSIgY2xhc3M9ImVkZ2UtdGhpY2tuZXNzLW5vcm1hbCBlZGdlLXBhdHRlcm4tc29saWQgdHJhbnNpdGlvbiIgaWQ9ImVkZ2UzIiBkPSJNMzU1Ljk4MSwzNjIuMDc5TDMxMS42NjksMzcyLjc1MkMyNjcuMzU4LDM4My40MjUsMTc4LjczNCw0MDQuNzcyLDEzNC40MjIsNDI0LjQyMUM5MC4xMTEsNDQ0LjA3LDkwLjExMSw0NjIuMDIzLDkwLjExMSw0NzAuOTk5TDkwLjExMSw0NzkuOTc1Ij48L3BhdGg+PHBhdGggbWFya2VyLWVuZD0idXJsKCNnZU1lcm1haWRPdXRwdXQtMTc0MjE4NzI4NDk0Nl9zdGF0ZURpYWdyYW0tYmFyYkVuZCkiIHN0eWxlPSI7ZmlsbDpub25lIiBjbGFzcz0iZWRnZS10aGlja25lc3Mtbm9ybWFsIGVkZ2UtcGF0dGVybi1zb2xpZCB0cmFuc2l0aW9uIiBpZD0iZWRnZTQiIGQ9Ik0zNTcuMDU2LDM3Mi4yNjFMMzM5LjIzOCwzODEuMjM3QzMyMS40MiwzOTAuMjEzLDI4NS43ODQsNDA4LjE2NSwyOTAuOTI3LDQyNi40MzFDMjk2LjA3LDQ0NC42OTcsMzQxLjk5Myw0NjMuMjc3LDM2NC45NTQsNDcyLjU2N0wzODcuOTE1LDQ4MS44NTciPjwvcGF0aD48cGF0aCBtYXJrZXItZW5kPSJ1cmwoI2dlTWVybWFpZE91dHB1dC0xNzQyMTg3Mjg0OTQ2X3N0YXRlRGlhZ3JhbS1iYXJiRW5kKSIgc3R5bGU9IjtmaWxsOm5vbmUiIGNsYXNzPSJlZGdlLXRoaWNrbmVzcy1ub3JtYWwgZWRnZS1wYXR0ZXJuLXNvbGlkIHRyYW5zaXRpb24iIGlkPSJlZGdlNSIgZD0iTTQzNy41NTMsMzYzLjcyMkw0NzQuNTQzLDM3NC4xMjFDNTExLjUzMywzODQuNTIsNTg1LjUxNCw0MDUuMzE5LDYzMi42OTYsNDI0LjY5NUM2NzkuODc5LDQ0NC4wNyw3MDAuMjYzLDQ2Mi4wMjMsNzEwLjQ1NSw0NzAuOTk5TDcyMC42NDgsNDc5Ljk3NSI+PC9wYXRoPjxwYXRoIG1hcmtlci1lbmQ9InVybCgjZ2VNZXJtYWlkT3V0cHV0LTE3NDIxODcyODQ5NDZfc3RhdGVEaWFncmFtLWJhcmJFbmQpIiBzdHlsZT0iO2ZpbGw6bm9uZSIgY2xhc3M9ImVkZ2UtdGhpY2tuZXNzLW5vcm1hbCBlZGdlLXBhdHRlcm4tc29saWQgdHJhbnNpdGlvbiIgaWQ9ImVkZ2U2IiBkPSJNOTAuMTExLDUxOS45ODZMOTAuMTExLDUyNy40OTVDOTAuMTExLDUzNS4wMDUsOTAuMTExLDU1MC4wMjQsOTAuMTExLDU2NS4wNDNDOTAuMTExLDU4MC4wNjIsOTAuMTExLDU5NS4wODEsOTAuMTExLDYwMi41OUw5MC4xMTEsNjEwLjEiPjwvcGF0aD48cGF0aCBtYXJrZXItZW5kPSJ1cmwoI2dlTWVybWFpZE91dHB1dC0xNzQyMTg3Mjg0OTQ2X3N0YXRlRGlhZ3JhbS1iYXJiRW5kKSIgc3R5bGU9IjtmaWxsOm5vbmUiIGNsYXNzPSJlZGdlLXRoaWNrbmVzcy1ub3JtYWwgZWRnZS1wYXR0ZXJuLXNvbGlkIHRyYW5zaXRpb24iIGlkPSJlZGdlNyIgZD0iTTkwLjExMSw2NTAuMTExTDkwLjExMSw2NTYuMTU0QzkwLjExMSw2NjIuMTk2LDkwLjExMSw2NzQuMjgyLDE1OC4wMDQsNjg4Ljc1OUMyMjUuODk4LDcwMy4yMzYsMzYxLjY4Niw3MjAuMTA1LDQyOS41NzksNzI4LjUzOUw0OTcuNDczLDczNi45NzQiPjwvcGF0aD48cGF0aCBtYXJrZXItZW5kPSJ1cmwoI2dlTWVybWFpZE91dHB1dC0xNzQyMTg3Mjg0OTQ2X3N0YXRlRGlhZ3JhbS1iYXJiRW5kKSIgc3R5bGU9IjtmaWxsOm5vbmUiIGNsYXNzPSJlZGdlLXRoaWNrbmVzcy1ub3JtYWwgZWRnZS1wYXR0ZXJuLXNvbGlkIHRyYW5zaXRpb24iIGlkPSJlZGdlOCIgZD0iTTU4OC41NDMsNzM2LjQ4Nkw2NTAuNDQ2LDcyOC4xMzNDNzEyLjM0OSw3MTkuNzgsODM2LjE1NSw3MDMuMDc0LDg5OC4wNTgsNjg1LjM0NEM5NTkuOTYyLDY2Ny42MTQsOTU5Ljk2Miw2NDguODYsOTU5Ljk2Miw2MjguNjM5Qzk1OS45NjIsNjA4LjQxOCw5NTkuOTYyLDU4Ni43Myw5NTkuOTYyLDU2NS4wNDNDOTU5Ljk2Miw1NDMuMzU1LDk1OS45NjIsNTIxLjY2OCw5NTkuOTYyLDQ5OC41MTRDOTU5Ljk2Miw0NzUuMzYsOTU5Ljk2Miw0NTAuNzM5LDg3Mi44OTMsNDI3LjAwOUM3ODUuODI1LDQwMy4yOCw2MTEuNjg5LDM4MC40NDIsNTI0LjYyMSwzNjkuMDIzTDQzNy41NTMsMzU3LjYwNCI+PC9wYXRoPjxwYXRoIG1hcmtlci1lbmQ9InVybCgjZ2VNZXJtYWlkT3V0cHV0LTE3NDIxODcyODQ5NDZfc3RhdGVEaWFncmFtLWJhcmJFbmQpIiBzdHlsZT0iO2ZpbGw6bm9uZSIgY2xhc3M9ImVkZ2UtdGhpY2tuZXNzLW5vcm1hbCBlZGdlLXBhdHRlcm4tc29saWQgdHJhbnNpdGlvbiIgaWQ9ImVkZ2U5IiBkPSJNNzQzLjM2Myw1MTkuOTg2TDc0My4zNjMsNTI3LjQ5NUM3NDMuMzYzLDUzNS4wMDUsNzQzLjM2Myw1NTAuMDI0LDc0OC4yOTYsNTY1LjA0M0M3NTMuMjI5LDU4MC4wNjIsNzYzLjA5NSw1OTUuMDgxLDc2OC4wMjgsNjAyLjU5TDc3Mi45Niw2MTAuMSI+PC9wYXRoPjxwYXRoIG1hcmtlci1lbmQ9InVybCgjZ2VNZXJtYWlkT3V0cHV0LTE3NDIxODcyODQ5NDZfc3RhdGVEaWFncmFtLWJhcmJFbmQpIiBzdHlsZT0iO2ZpbGw6bm9uZSIgY2xhc3M9ImVkZ2UtdGhpY2tuZXNzLW5vcm1hbCBlZGdlLXBhdHRlcm4tc29saWQgdHJhbnNpdGlvbiIgaWQ9ImVkZ2UxMCIgZD0iTTc0Ny4zODUsNDc5Ljk3NUw3NDkuMTg5LDQ3MC45OTlDNzUwLjk5NCw0NjIuMDIzLDc1NC42MDIsNDQ0LjA3LDc1Ni40MDcsNDIyLjc4NEM3NTguMjExLDQwMS40OTcsNzU4LjIxMSwzNzYuODc2LDc1OC4yMTEsMzUyLjI1NUM3NTguMjExLDMyNy42MzUsNzU4LjIxMSwzMDMuMDE0LDc1OC4yMTEsMjc4LjM5M0M3NTguMjExLDI1My43NzIsNzU4LjIxMSwyMjkuMTUxLDc1OC4yMTEsMjA3LjQ2NEM3NTguMjExLDE4NS43NzYsNzU4LjIxMSwxNjcuMDIyLDc1MS4zMTUsMTUxLjYwMkM3NDQuNDE5LDEzNi4xODIsNzMwLjYyNywxMjQuMDk2LDcyMy43MzEsMTE4LjA1NEw3MTYuODM1LDExMi4wMTEiPjwvcGF0aD48cGF0aCBtYXJrZXItZW5kPSJ1cmwoI2dlTWVybWFpZE91dHB1dC0xNzQyMTg3Mjg0OTQ2X3N0YXRlRGlhZ3JhbS1iYXJiRW5kKSIgc3R5bGU9IjtmaWxsOm5vbmUiIGNsYXNzPSJlZGdlLXRoaWNrbmVzcy1ub3JtYWwgZWRnZS1wYXR0ZXJuLXNvbGlkIHRyYW5zaXRpb24iIGlkPSJlZGdlMTEiIGQ9Ik04MDMuMzY4LDYxMC4xTDgwOS44NDksNjAyLjU5QzgxNi4zMyw1OTUuMDgxLDgyOS4yOTIsNTgwLjA2Miw4MzUuNzc0LDU2MS43MDlDODQyLjI1NSw1NDMuMzU1LDg0Mi4yNTUsNTIxLjY2OCw4NDIuMjU1LDQ5OC41MTRDODQyLjI1NSw0NzUuMzYsODQyLjI1NSw0NTAuNzM5LDg0Mi4yNTUsNDI2LjExOEM4NDIuMjU1LDQwMS40OTcsODQyLjI1NSwzNzYuODc2LDg0Mi4yNTUsMzUyLjI1NUM4NDIuMjU1LDMyNy42MzUsODQyLjI1NSwzMDMuMDE0LDg0Mi4yNTUsMjc4LjM5M0M4NDIuMjU1LDI1My43NzIsODQyLjI1NSwyMjkuMTUxLDg0Mi4yNTUsMjA3LjQ2NEM4NDIuMjU1LDE4NS43NzYsODQyLjI1NSwxNjcuMDIyLDgyMS40NTgsMTQ5Ljc1MkM4MDAuNjYxLDEzMi40ODMsNzU5LjA2NywxMTYuNjk3LDczOC4yNywxMDguODA1TDcxNy40NzMsMTAwLjkxMiI+PC9wYXRoPjxwYXRoIG1hcmtlci1lbmQ9InVybCgjZ2VNZXJtYWlkT3V0cHV0LTE3NDIxODcyODQ5NDZfc3RhdGVEaWFncmFtLWJhcmJFbmQpIiBzdHlsZT0iO2ZpbGw6bm9uZSIgY2xhc3M9ImVkZ2UtdGhpY2tuZXNzLW5vcm1hbCBlZGdlLXBhdHRlcm4tc29saWQgdHJhbnNpdGlvbiIgaWQ9ImVkZ2UxMiIgZD0iTTQzMi43MTEsNDc5Ljk3NUw0MzIuNzExLDQ3MC45OTlDNDMyLjcxMSw0NjIuMDIzLDQzMi43MTEsNDQ0LjA3LDQyOC4zNDIsNDI2LjExOEM0MjMuOTc0LDQwOC4xNjUsNDE1LjIzOCwzOTAuMjEzLDQxMC44NywzODEuMjM3TDQwNi41MDIsMzcyLjI2MSI+PC9wYXRoPjxwYXRoIG1hcmtlci1lbmQ9InVybCgjZ2VNZXJtYWlkT3V0cHV0LTE3NDIxODcyODQ5NDZfc3RhdGVEaWFncmFtLWJhcmJFbmQpIiBzdHlsZT0iO2ZpbGw6bm9uZSIgY2xhc3M9ImVkZ2UtdGhpY2tuZXNzLW5vcm1hbCBlZGdlLXBhdHRlcm4tc29saWQgdHJhbnNpdGlvbiIgaWQ9ImVkZ2UxMyIgZD0iTTQ2Ny4zOTcsNDc5Ljk3NUw0ODIuOTYsNDcwLjk5OUM0OTguNTI0LDQ2Mi4wMjMsNTI5LjY1MSw0NDQuMDcsNTQ1LjIxNCw0MjIuNzg0QzU2MC43NzcsNDAxLjQ5Nyw1NjAuNzc3LDM3Ni44NzYsNTYwLjc3NywzNTIuMjU1QzU2MC43NzcsMzI3LjYzNSw1NjAuNzc3LDMwMy4wMTQsNTYwLjc3NywyNzguMzkzQzU2MC43NzcsMjUzLjc3Miw1NjAuNzc3LDIyOS4xNTEsNTYwLjc3NywyMDcuNDY0QzU2MC43NzcsMTg1Ljc3Niw1NjAuNzc3LDE2Ny4wMjIsNTc5LjA3LDE0OS45MkM1OTcuMzY0LDEzMi44MTcsNjMzLjk1LDExNy4zNjcsNjUyLjI0MywxMDkuNjQyTDY3MC41MzYsMTAxLjkxNiI+PC9wYXRoPjwvZz48ZyBjbGFzcz0iZWRnZUxhYmVscyI+PGc+PHJlY3Qgc3R5bGU9InN0cm9rZTogbm9uZSIgY2xhc3M9ImJhY2tncm91bmQiPjwvcmVjdD48L2c+PGcgY2xhc3M9ImVkZ2VMYWJlbCI+PGcgdHJhbnNmb3JtPSJ0cmFuc2xhdGUoMCwgMCkiIGNsYXNzPSJsYWJlbCI+PHRleHQgeT0iLTEwLjEiPjx0c3BhbiBkeT0iMS4xZW0iIHk9Ii0wLjFlbSIgeD0iMCIgY2xhc3M9InRleHQtb3V0ZXItdHNwYW4iPjwvdHNwYW4+PC90ZXh0PjwvZz48L2c+PGcgdHJhbnNmb3JtPSJ0cmFuc2xhdGUoMzk2Ljc2NjkzNTM0ODUxMDc0LCAxNDguMjY3ODU4NTA1MjQ5MDIpIiBjbGFzcz0iZWRnZUxhYmVsIj48ZyB0cmFuc2Zvcm09InRyYW5zbGF0ZSgtNzAuMTM4MzUxNDQwNDI5NjksIC0xMS4yNTcxNDMwMjA2Mjk4ODMpIiBjbGFzcz0ibGFiZWwiPjxnPjxyZWN0IGhlaWdodD0iMjIuNTE0Mjg2MDQxMjU5NzY2IiB3aWR0aD0iMTQwLjI3NjcwMjg4MDg1OTM4IiB5PSItMS40Mjg1NzE2NDE0NDUxNiIgeD0iLTIiIHN0eWxlPSIiIGNsYXNzPSJiYWNrZ3JvdW5kIj48L3JlY3Q+PHRleHQgc3R5bGU9IiIgeT0iLTEwLjEiPjx0c3BhbiBkeT0iMS4xZW0iIHk9Ii0wLjFlbSIgeD0iMCIgY2xhc3M9InRleHQtb3V0ZXItdHNwYW4iPjx0c3BhbiBmb250LXdlaWdodD0ibm9ybWFsIiBjbGFzcz0idGV4dC1pbm5lci10c3BhbiIgZm9udC1zdHlsZT0ibm9ybWFsIj5OZXc8L3RzcGFuPjx0c3BhbiBmb250LXdlaWdodD0ibm9ybWFsIiBjbGFzcz0idGV4dC1pbm5lci10c3BhbiIgZm9udC1zdHlsZT0ibm9ybWFsIj4gVGFzazwvdHNwYW4+PHRzcGFuIGZvbnQtd2VpZ2h0PSJub3JtYWwiIGNsYXNzPSJ0ZXh0LWlubmVyLXRzcGFuIiBmb250LXN0eWxlPSJub3JtYWwiPiBEZXRlY3RlZDwvdHNwYW4+PC90c3Bhbj48L3RleHQ+PC9nPjwvZz48L2c+PGcgdHJhbnNmb3JtPSJ0cmFuc2xhdGUoMzk2Ljc2NjkzNTM0ODUxMDc0LCAyNzguMzkyODU4NTA1MjQ5KSIgY2xhc3M9ImVkZ2VMYWJlbCI+PGcgdHJhbnNmb3JtPSJ0cmFuc2xhdGUoLTgzLjg1OTgyNTEzNDI3NzM0LCAtMjguODU3MTQxNDk0NzUwOTc3KSIgY2xhc3M9ImxhYmVsIj48Zz48cmVjdCBoZWlnaHQ9IjU3LjcxNDI4Mjk4OTUwMTk1IiB3aWR0aD0iMTY3LjcxOTY1MDI2ODU1NDciIHk9Ii0xLjQyODU3MTY0MTQ0NTE2IiB4PSItMiIgc3R5bGU9IiIgY2xhc3M9ImJhY2tncm91bmQiPjwvcmVjdD48dGV4dCBzdHlsZT0iIiB5PSItMTAuMSI+PHRzcGFuIGR5PSIxLjFlbSIgeT0iLTAuMWVtIiB4PSIwIiBjbGFzcz0idGV4dC1vdXRlci10c3BhbiI+PHRzcGFuIGZvbnQtd2VpZ2h0PSJub3JtYWwiIGNsYXNzPSJ0ZXh0LWlubmVyLXRzcGFuIiBmb250LXN0eWxlPSJub3JtYWwiPkluaXRpYXRlPC90c3Bhbj48dHNwYW4gZm9udC13ZWlnaHQ9Im5vcm1hbCIgY2xhc3M9InRleHQtaW5uZXItdHNwYW4iIGZvbnQtc3R5bGU9Im5vcm1hbCI+IFRhc2s8L3RzcGFuPjwvdHNwYW4+PHRzcGFuIGR5PSIxLjFlbSIgeT0iMWVtIiB4PSIwIiBjbGFzcz0idGV4dC1vdXRlci10c3BhbiI+PHRzcGFuIGZvbnQtd2VpZ2h0PSJub3JtYWwiIGNsYXNzPSJ0ZXh0LWlubmVyLXRzcGFuIiBmb250LXN0eWxlPSJub3JtYWwiPihkaXNhYmxlPC90c3Bhbj48dHNwYW4gZm9udC13ZWlnaHQ9Im5vcm1hbCIgY2xhc3M9InRleHQtaW5uZXItdHNwYW4iIGZvbnQtc3R5bGU9Im5vcm1hbCI+IFNtYXJ0PC90c3Bhbj48dHNwYW4gZm9udC13ZWlnaHQ9Im5vcm1hbCIgY2xhc3M9InRleHQtaW5uZXItdHNwYW4iIGZvbnQtc3R5bGU9Im5vcm1hbCI+IENoYXJnZSw8L3RzcGFuPjwvdHNwYW4+PHRzcGFuIGR5PSIxLjFlbSIgeT0iMi4xZW0iIHg9IjAiIGNsYXNzPSJ0ZXh0LW91dGVyLXRzcGFuIj48dHNwYW4gZm9udC13ZWlnaHQ9Im5vcm1hbCIgY2xhc3M9InRleHQtaW5uZXItdHNwYW4iIGZvbnQtc3R5bGU9Im5vcm1hbCI+b2J0YWluPC90c3Bhbj48dHNwYW4gZm9udC13ZWlnaHQ9Im5vcm1hbCIgY2xhc3M9InRleHQtaW5uZXItdHNwYW4iIGZvbnQtc3R5bGU9Im5vcm1hbCI+IHJ1bnRpbWVJZCk8L3RzcGFuPjwvdHNwYW4+PC90ZXh0PjwvZz48L2c+PC9nPjxnIHRyYW5zZm9ybT0idHJhbnNsYXRlKDkwLjExMDc1NTkyMDQxMDE2LCA0MjYuMTE3ODU2OTc5MzcwMSkiIGNsYXNzPSJlZGdlTGFiZWwiPjxnIHRyYW5zZm9ybT0idHJhbnNsYXRlKC01MS4wMzA4NDU2NDIwODk4NDQsIC0xMS4yNTcxNDMwMjA2Mjk4ODMpIiBjbGFzcz0ibGFiZWwiPjxnPjxyZWN0IGhlaWdodD0iMjIuNTE0Mjg2MDQxMjU5NzY2IiB3aWR0aD0iMTAyLjA2MTY5MTI4NDE3OTY5IiB5PSItMS40Mjg1NzE2NDE0NDUxNiIgeD0iLTIiIHN0eWxlPSIiIGNsYXNzPSJiYWNrZ3JvdW5kIj48L3JlY3Q+PHRleHQgc3R5bGU9IiIgeT0iLTEwLjEiPjx0c3BhbiBkeT0iMS4xZW0iIHk9Ii0wLjFlbSIgeD0iMCIgY2xhc3M9InRleHQtb3V0ZXItdHNwYW4iPjx0c3BhbiBmb250LXdlaWdodD0ibm9ybWFsIiBjbGFzcz0idGV4dC1pbm5lci10c3BhbiIgZm9udC1zdHlsZT0ibm9ybWFsIj5CYXR0ZXJ5PC90c3Bhbj48dHNwYW4gZm9udC13ZWlnaHQ9Im5vcm1hbCIgY2xhc3M9InRleHQtaW5uZXItdHNwYW4iIGZvbnQtc3R5bGU9Im5vcm1hbCI+IOKJpDwvdHNwYW4+PHRzcGFuIGZvbnQtd2VpZ2h0PSJub3JtYWwiIGNsYXNzPSJ0ZXh0LWlubmVyLXRzcGFuIiBmb250LXN0eWxlPSJub3JtYWwiPiAxMCU8L3RzcGFuPjwvdHNwYW4+PC90ZXh0PjwvZz48L2c+PC9nPjxnIHRyYW5zZm9ybT0idHJhbnNsYXRlKDI1MC4xNDc4MDQyNjAyNTM5LCA0MjYuMTE3ODU2OTc5MzcwMSkiIGNsYXNzPSJlZGdlTGFiZWwiPjxnIHRyYW5zZm9ybT0idHJhbnNsYXRlKC04OS4wMDYyMDI2OTc3NTM5LCAtMTEuMjU3MTQzMDIwNjI5ODgzKSIgY2xhc3M9ImxhYmVsIj48Zz48cmVjdCBoZWlnaHQ9IjIyLjUxNDI4NjA0MTI1OTc2NiIgd2lkdGg9IjE3OC4wMTI0MDUzOTU1MDc4IiB5PSItMS40Mjg1NzE2NDE0NDUxNiIgeD0iLTMuMDI4NTcxNDg2NDczMDgzNSIgc3R5bGU9IiIgY2xhc3M9ImJhY2tncm91bmQiPjwvcmVjdD48dGV4dCBzdHlsZT0iIiB5PSItMTAuMSI+PHRzcGFuIGR5PSIxLjFlbSIgeT0iLTAuMWVtIiB4PSIwIiBjbGFzcz0idGV4dC1vdXRlci10c3BhbiI+PHRzcGFuIGZvbnQtd2VpZ2h0PSJub3JtYWwiIGNsYXNzPSJ0ZXh0LWlubmVyLXRzcGFuIiBmb250LXN0eWxlPSJub3JtYWwiPkFNUjwvdHNwYW4+PHRzcGFuIGZvbnQtd2VpZ2h0PSJub3JtYWwiIGNsYXNzPSJ0ZXh0LWlubmVyLXRzcGFuIiBmb250LXN0eWxlPSJub3JtYWwiPiBBYm5vcm1hbDwvdHNwYW4+PHRzcGFuIGZvbnQtd2VpZ2h0PSJub3JtYWwiIGNsYXNzPSJ0ZXh0LWlubmVyLXRzcGFuIiBmb250LXN0eWxlPSJub3JtYWwiPiBEZXRlY3RlZDwvdHNwYW4+PC90c3Bhbj48L3RleHQ+PC9nPjwvZz48L2c+PGcgdHJhbnNmb3JtPSJ0cmFuc2xhdGUoNjU5LjQ5NDMyMzczMDQ2ODgsIDQyNi4xMTc4NTY5NzkzNzAxKSIgY2xhc3M9ImVkZ2VMYWJlbCI+PGcgdHJhbnNmb3JtPSJ0cmFuc2xhdGUoLTc4LjcxNjk3MjM1MTA3NDIyLCAtMjguODU3MTQxNDk0NzUwOTc3KSIgY2xhc3M9ImxhYmVsIj48Zz48cmVjdCBoZWlnaHQ9IjU3LjcxNDI4Mjk4OTUwMTk1IiB3aWR0aD0iMTU3LjQzMzk0NDcwMjE0ODQ0IiB5PSItMS40Mjg1NzE2NDE0NDUxNiIgeD0iLTIiIHN0eWxlPSIiIGNsYXNzPSJiYWNrZ3JvdW5kIj48L3JlY3Q+PHRleHQgc3R5bGU9IiIgeT0iLTEwLjEiPjx0c3BhbiBkeT0iMS4xZW0iIHk9Ii0wLjFlbSIgeD0iMCIgY2xhc3M9InRleHQtb3V0ZXItdHNwYW4iPjx0c3BhbiBmb250LXdlaWdodD0ibm9ybWFsIiBjbGFzcz0idGV4dC1pbm5lci10c3BhbiIgZm9udC1zdHlsZT0ibm9ybWFsIj5DYWxsYmFjazwvdHNwYW4+PC90c3Bhbj48dHNwYW4gZHk9IjEuMWVtIiB5PSIxZW0iIHg9IjAiIGNsYXNzPSJ0ZXh0LW91dGVyLXRzcGFuIj48dHNwYW4gZm9udC13ZWlnaHQ9Im5vcm1hbCIgY2xhc3M9InRleHQtaW5uZXItdHNwYW4iIGZvbnQtc3R5bGU9Im5vcm1hbCI+JmFtcDtxdW90O1N1Y2Nlc3MmYW1wO3F1b3Q7PC90c3Bhbj48L3RzcGFuPjx0c3BhbiBkeT0iMS4xZW0iIHk9IjIuMWVtIiB4PSIwIiBjbGFzcz0idGV4dC1vdXRlci10c3BhbiI+PHRzcGFuIGZvbnQtd2VpZ2h0PSJub3JtYWwiIGNsYXNzPSJ0ZXh0LWlubmVyLXRzcGFuIiBmb250LXN0eWxlPSJub3JtYWwiPlJlY2VpdmVkPC90c3Bhbj48L3RzcGFuPjwvdGV4dD48L2c+PC9nPjwvZz48ZyB0cmFuc2Zvcm09InRyYW5zbGF0ZSg5MC4xMTA3NTU5MjA0MTAxNiwgNTY1LjA0Mjg1NjIxNjQzMDcpIiBjbGFzcz0iZWRnZUxhYmVsIj48ZyB0cmFuc2Zvcm09InRyYW5zbGF0ZSgtNDAuMjM3Mjk3MDU4MTA1NDcsIC0xMS4yNTcxNDMwMjA2Mjk4ODMpIiBjbGFzcz0ibGFiZWwiPjxnPjxyZWN0IGhlaWdodD0iMjIuNTE0Mjg2MDQxMjU5NzY2IiB3aWR0aD0iODAuNDc0NTk0MTE2MjEwOTQiIHk9Ii0xLjQyODU3MTY0MTQ0NTE2IiB4PSItMiIgc3R5bGU9IiIgY2xhc3M9ImJhY2tncm91bmQiPjwvcmVjdD48dGV4dCBzdHlsZT0iIiB5PSItMTAuMSI+PHRzcGFuIGR5PSIxLjFlbSIgeT0iLTAuMWVtIiB4PSIwIiBjbGFzcz0idGV4dC1vdXRlci10c3BhbiI+PHRzcGFuIGZvbnQtd2VpZ2h0PSJub3JtYWwiIGNsYXNzPSJ0ZXh0LWlubmVyLXRzcGFuIiBmb250LXN0eWxlPSJub3JtYWwiPlBhdXNlPC90c3Bhbj48dHNwYW4gZm9udC13ZWlnaHQ9Im5vcm1hbCIgY2xhc3M9InRleHQtaW5uZXItdHNwYW4iIGZvbnQtc3R5bGU9Im5vcm1hbCI+IFRhc2s8L3RzcGFuPjwvdHNwYW4+PC90ZXh0PjwvZz48L2c+PC9nPjxnIHRyYW5zZm9ybT0idHJhbnNsYXRlKDkwLjExMDc1NTkyMDQxMDE2LCA2ODYuMzY3ODU2OTc5MzcwMSkiIGNsYXNzPSJlZGdlTGFiZWwiPjxnIHRyYW5zZm9ybT0idHJhbnNsYXRlKC04Mi4xMTA3NTU5MjA0MTAxNiwgLTExLjI1NzE0MzAyMDYyOTg4MykiIGNsYXNzPSJsYWJlbCI+PGc+PHJlY3QgaGVpZ2h0PSIyMi41MTQyODYwNDEyNTk3NjYiIHdpZHRoPSIxNjQuMjIxNTExODQwODIwMyIgeT0iLTEuNDI4NTcxNjQxNDQ1MTYiIHg9Ii0yIiBzdHlsZT0iIiBjbGFzcz0iYmFja2dyb3VuZCI+PC9yZWN0Pjx0ZXh0IHN0eWxlPSIiIHk9Ii0xMC4xIj48dHNwYW4gZHk9IjEuMWVtIiB5PSItMC4xZW0iIHg9IjAiIGNsYXNzPSJ0ZXh0LW91dGVyLXRzcGFuIj48dHNwYW4gZm9udC13ZWlnaHQ9Im5vcm1hbCIgY2xhc3M9InRleHQtaW5uZXItdHNwYW4iIGZvbnQtc3R5bGU9Im5vcm1hbCI+U3RhcnQ8L3RzcGFuPjx0c3BhbiBmb250LXdlaWdodD0ibm9ybWFsIiBjbGFzcz0idGV4dC1pbm5lci10c3BhbiIgZm9udC1zdHlsZT0ibm9ybWFsIj4gQ2hhcmdpbmc8L3RzcGFuPjx0c3BhbiBmb250LXdlaWdodD0ibm9ybWFsIiBjbGFzcz0idGV4dC1pbm5lci10c3BhbiIgZm9udC1zdHlsZT0ibm9ybWFsIj4gUHJvY2VzczwvdHNwYW4+PC90c3Bhbj48L3RleHQ+PC9nPjwvZz48L2c+PGcgdHJhbnNmb3JtPSJ0cmFuc2xhdGUoOTU5Ljk2MTU0MjEyOTUxNjYsIDU2NS4wNDI4NTYyMTY0MzA3KSIgY2xhc3M9ImVkZ2VMYWJlbCI+PGcgdHJhbnNmb3JtPSJ0cmFuc2xhdGUoLTk3LjcwNjY5NTU1NjY0MDYyLCAtMjAuMDU3MTQyMjU3NjkwNDMpIiBjbGFzcz0ibGFiZWwiPjxnPjxyZWN0IGhlaWdodD0iNDAuMTE0Mjg0NTE1MzgwODYiIHdpZHRoPSIxOTUuNDEzMzkxMTEzMjgxMjUiIHk9Ii0xLjQyODU3MTY0MTQ0NTE2IiB4PSItMiIgc3R5bGU9IiIgY2xhc3M9ImJhY2tncm91bmQiPjwvcmVjdD48dGV4dCBzdHlsZT0iIiB5PSItMTAuMSI+PHRzcGFuIGR5PSIxLjFlbSIgeT0iLTAuMWVtIiB4PSIwIiBjbGFzcz0idGV4dC1vdXRlci10c3BhbiI+PHRzcGFuIGZvbnQtd2VpZ2h0PSJub3JtYWwiIGNsYXNzPSJ0ZXh0LWlubmVyLXRzcGFuIiBmb250LXN0eWxlPSJub3JtYWwiPkJhdHRlcnk8L3RzcGFuPjx0c3BhbiBmb250LXdlaWdodD0ibm9ybWFsIiBjbGFzcz0idGV4dC1pbm5lci10c3BhbiIgZm9udC1zdHlsZT0ibm9ybWFsIj4g4omlPC90c3Bhbj48dHNwYW4gZm9udC13ZWlnaHQ9Im5vcm1hbCIgY2xhc3M9InRleHQtaW5uZXItdHNwYW4iIGZvbnQtc3R5bGU9Im5vcm1hbCI+IENoYXJnZVRocmVzaG9sZDwvdHNwYW4+PC90c3Bhbj48dHNwYW4gZHk9IjEuMWVtIiB5PSIxZW0iIHg9IjAiIGNsYXNzPSJ0ZXh0LW91dGVyLXRzcGFuIj48dHNwYW4gZm9udC13ZWlnaHQ9Im5vcm1hbCIgY2xhc3M9InRleHQtaW5uZXItdHNwYW4iIGZvbnQtc3R5bGU9Im5vcm1hbCI+KGUuZy4sPC90c3Bhbj48dHNwYW4gZm9udC13ZWlnaHQ9Im5vcm1hbCIgY2xhc3M9InRleHQtaW5uZXItdHNwYW4iIGZvbnQtc3R5bGU9Im5vcm1hbCI+IDMwJSk8L3RzcGFuPjwvdHNwYW4+PC90ZXh0PjwvZz48L2c+PC9nPjxnIHRyYW5zZm9ybT0idHJhbnNsYXRlKDc0My4zNjMxNDc3MzU1OTU3LCA1NjUuMDQyODU2MjE2NDMwNykiIGNsYXNzPSJlZGdlTGFiZWwiPjxnIHRyYW5zZm9ybT0idHJhbnNsYXRlKC01MS4wMzA4NDU2NDIwODk4NDQsIC0xMS4yNTcxNDMwMjA2Mjk4ODMpIiBjbGFzcz0ibGFiZWwiPjxnPjxyZWN0IGhlaWdodD0iMjIuNTE0Mjg2MDQxMjU5NzY2IiB3aWR0aD0iMTAyLjA2MTY5MTI4NDE3OTY5IiB5PSItMS40Mjg1NzE2NDE0NDUxNiIgeD0iLTIiIHN0eWxlPSIiIGNsYXNzPSJiYWNrZ3JvdW5kIj48L3JlY3Q+PHRleHQgc3R5bGU9IiIgeT0iLTEwLjEiPjx0c3BhbiBkeT0iMS4xZW0iIHk9Ii0wLjFlbSIgeD0iMCIgY2xhc3M9InRleHQtb3V0ZXItdHNwYW4iPjx0c3BhbiBmb250LXdlaWdodD0ibm9ybWFsIiBjbGFzcz0idGV4dC1pbm5lci10c3BhbiIgZm9udC1zdHlsZT0ibm9ybWFsIj5CYXR0ZXJ5PC90c3Bhbj48dHNwYW4gZm9udC13ZWlnaHQ9Im5vcm1hbCIgY2xhc3M9InRleHQtaW5uZXItdHNwYW4iIGZvbnQtc3R5bGU9Im5vcm1hbCI+IOKJpDwvdHNwYW4+PHRzcGFuIGZvbnQtd2VpZ2h0PSJub3JtYWwiIGNsYXNzPSJ0ZXh0LWlubmVyLXRzcGFuIiBmb250LXN0eWxlPSJub3JtYWwiPiA1MCU8L3RzcGFuPjwvdHNwYW4+PC90ZXh0PjwvZz48L2c+PC9nPjxnIHRyYW5zZm9ybT0idHJhbnNsYXRlKDc1OC4yMTEyOTYwODE1NDMsIDI3OC4zOTI4NTg1MDUyNDkpIiBjbGFzcz0iZWRnZUxhYmVsIj48ZyB0cmFuc2Zvcm09InRyYW5zbGF0ZSgtNjIuNjEwMzEzNDE1NTI3MzQ0LCAtMTEuMjU3MTQzMDIwNjI5ODgzKSIgY2xhc3M9ImxhYmVsIj48Zz48cmVjdCBoZWlnaHQ9IjIyLjUxNDI4NjA0MTI1OTc2NiIgd2lkdGg9IjEyNS4yMjA2MjY4MzEwNTQ2OSIgeT0iLTEuNDI4NTcxNjQxNDQ1MTYiIHg9Ii0yIiBzdHlsZT0iIiBjbGFzcz0iYmFja2dyb3VuZCI+PC9yZWN0Pjx0ZXh0IHN0eWxlPSIiIHk9Ii0xMC4xIj48dHNwYW4gZHk9IjEuMWVtIiB5PSItMC4xZW0iIHg9IjAiIGNsYXNzPSJ0ZXh0LW91dGVyLXRzcGFuIj48dHNwYW4gZm9udC13ZWlnaHQ9Im5vcm1hbCIgY2xhc3M9InRleHQtaW5uZXItdHNwYW4iIGZvbnQtc3R5bGU9Im5vcm1hbCI+QmF0dGVyeTwvdHNwYW4+PHRzcGFuIGZvbnQtd2VpZ2h0PSJub3JtYWwiIGNsYXNzPSJ0ZXh0LWlubmVyLXRzcGFuIiBmb250LXN0eWxlPSJub3JtYWwiPiAmYW1wO2d0OzwvdHNwYW4+PHRzcGFuIGZvbnQtd2VpZ2h0PSJub3JtYWwiIGNsYXNzPSJ0ZXh0LWlubmVyLXRzcGFuIiBmb250LXN0eWxlPSJub3JtYWwiPiA1MCU8L3RzcGFuPjwvdHNwYW4+PC90ZXh0PjwvZz48L2c+PC9nPjxnIHRyYW5zZm9ybT0idHJhbnNsYXRlKDg0Mi4yNTQ4NDY1NzI4NzYsIDM1Mi4yNTUzNTc3NDIzMDk1NykiIGNsYXNzPSJlZGdlTGFiZWwiPjxnIHRyYW5zZm9ybT0idHJhbnNsYXRlKC01MS4wMzA4NDU2NDIwODk4NDQsIC0xMS4yNTcxNDMwMjA2Mjk4ODMpIiBjbGFzcz0ibGFiZWwiPjxnPjxyZWN0IGhlaWdodD0iMjIuNTE0Mjg2MDQxMjU5NzY2IiB3aWR0aD0iMTAyLjA2MTY5MTI4NDE3OTY5IiB5PSItMS40Mjg1NzE2NDE0NDUxNiIgeD0iLTIiIHN0eWxlPSIiIGNsYXNzPSJiYWNrZ3JvdW5kIj48L3JlY3Q+PHRleHQgc3R5bGU9IiIgeT0iLTEwLjEiPjx0c3BhbiBkeT0iMS4xZW0iIHk9Ii0wLjFlbSIgeD0iMCIgY2xhc3M9InRleHQtb3V0ZXItdHNwYW4iPjx0c3BhbiBmb250LXdlaWdodD0ibm9ybWFsIiBjbGFzcz0idGV4dC1pbm5lci10c3BhbiIgZm9udC1zdHlsZT0ibm9ybWFsIj5CYXR0ZXJ5PC90c3Bhbj48dHNwYW4gZm9udC13ZWlnaHQ9Im5vcm1hbCIgY2xhc3M9InRleHQtaW5uZXItdHNwYW4iIGZvbnQtc3R5bGU9Im5vcm1hbCI+IOKJpTwvdHNwYW4+PHRzcGFuIGZvbnQtd2VpZ2h0PSJub3JtYWwiIGNsYXNzPSJ0ZXh0LWlubmVyLXRzcGFuIiBmb250LXN0eWxlPSJub3JtYWwiPiA1MCU8L3RzcGFuPjwvdHNwYW4+PC90ZXh0PjwvZz48L2c+PC9nPjxnIHRyYW5zZm9ybT0idHJhbnNsYXRlKDQzMi43MTA1MTAyNTM5MDYyNSwgNDI2LjExNzg1Njk3OTM3MDEpIiBjbGFzcz0iZWRnZUxhYmVsIj48ZyB0cmFuc2Zvcm09InRyYW5zbGF0ZSgtNzMuNTU2NTAzMjk1ODk4NDQsIC0xMS4yNTcxNDMwMjA2Mjk4ODMpIiBjbGFzcz0ibGFiZWwiPjxnPjxyZWN0IGhlaWdodD0iMjIuNTE0Mjg2MDQxMjU5NzY2IiB3aWR0aD0iMTQ3LjExMzAwNjU5MTc5Njg4IiB5PSItMS40Mjg1NzE2NDE0NDUxNiIgeD0iLTIiIHN0eWxlPSIiIGNsYXNzPSJiYWNrZ3JvdW5kIj48L3JlY3Q+PHRleHQgc3R5bGU9IiIgeT0iLTEwLjEiPjx0c3BhbiBkeT0iMS4xZW0iIHk9Ii0wLjFlbSIgeD0iMCIgY2xhc3M9InRleHQtb3V0ZXItdHNwYW4iPjx0c3BhbiBmb250LXdlaWdodD0ibm9ybWFsIiBjbGFzcz0idGV4dC1pbm5lci10c3BhbiIgZm9udC1zdHlsZT0ibm9ybWFsIj5SZWNvdmVyeTwvdHNwYW4+PHRzcGFuIGZvbnQtd2VpZ2h0PSJub3JtYWwiIGNsYXNzPSJ0ZXh0LWlubmVyLXRzcGFuIiBmb250LXN0eWxlPSJub3JtYWwiPiBTdWNjZXNzZnVsPC90c3Bhbj48L3RzcGFuPjwvdGV4dD48L2c+PC9nPjwvZz48ZyB0cmFuc2Zvcm09InRyYW5zbGF0ZSg1NjAuNzc3MzUxMzc5Mzk0NSwgMjc4LjM5Mjg1ODUwNTI0OSkiIGNsYXNzPSJlZGdlTGFiZWwiPjxnIHRyYW5zZm9ybT0idHJhbnNsYXRlKC01OC43MTczNTM4MjA4MDA3OCwgLTExLjI1NzE0MzAyMDYyOTg4MykiIGNsYXNzPSJsYWJlbCI+PGc+PHJlY3QgaGVpZ2h0PSIyMi41MTQyODYwNDEyNTk3NjYiIHdpZHRoPSIxMTcuNDM0NzA3NjQxNjAxNTYiIHk9Ii0xLjQyODU3MTY0MTQ0NTE2IiB4PSItMiIgc3R5bGU9IiIgY2xhc3M9ImJhY2tncm91bmQiPjwvcmVjdD48dGV4dCBzdHlsZT0iIiB5PSItMTAuMSI+PHRzcGFuIGR5PSIxLjFlbSIgeT0iLTAuMWVtIiB4PSIwIiBjbGFzcz0idGV4dC1vdXRlci10c3BhbiI+PHRzcGFuIGZvbnQtd2VpZ2h0PSJub3JtYWwiIGNsYXNzPSJ0ZXh0LWlubmVyLXRzcGFuIiBmb250LXN0eWxlPSJub3JtYWwiPlJlY292ZXJ5PC90c3Bhbj48dHNwYW4gZm9udC13ZWlnaHQ9Im5vcm1hbCIgY2xhc3M9InRleHQtaW5uZXItdHNwYW4iIGZvbnQtc3R5bGU9Im5vcm1hbCI+IEZhaWxlZDwvdHNwYW4+PC90c3Bhbj48L3RleHQ+PC9nPjwvZz48L2c+PC9nPjxnIGNsYXNzPSJub2RlcyI+PGcgdHJhbnNmb3JtPSJ0cmFuc2xhdGUoNjk0LjAwNDY2MTU2MDA1ODYsIDE1KSIgaWQ9InN0YXRlLXJvb3Rfc3RhcnQtMCIgY2xhc3M9Im5vZGUgZGVmYXVsdCI+PGNpcmNsZSBoZWlnaHQ9IjE0IiB3aWR0aD0iMTQiIHI9IjciIGNsYXNzPSJzdGF0ZS1zdGFydCI+PC9jaXJjbGU+PC9nPjxnIHRyYW5zZm9ybT0idHJhbnNsYXRlKDY5NC4wMDQ2NjE1NjAwNTg2LCA5Mi4wMDUzNTc3NDIzMDk1NykiIGlkPSJzdGF0ZS1JRExFLTEzIiBjbGFzcz0ibm9kZSAgc3RhdGVkaWFncmFtLXN0YXRlIj48cmVjdCBoZWlnaHQ9IjQwLjAxMDcxNTQ4NDYxOTE0IiB3aWR0aD0iNDYuOTM3NTAzODE0Njk3MjY2IiB5PSItMjAuMDA1MzU3NzQyMzA5NTciIHg9Ii0yMy40Njg3NTE5MDczNDg2MzMiIHJ5PSI1IiByeD0iNSIgc3R5bGU9IiIgY2xhc3M9ImJhc2ljIGxhYmVsLWNvbnRhaW5lciI+PC9yZWN0PjxnIHRyYW5zZm9ybT0idHJhbnNsYXRlKC0xNS40Njg3NTE5MDczNDg2MzMsIC0xMi4wMDUzNTc3NDIzMDk1NykiIHN0eWxlPSIiIGNsYXNzPSJsYWJlbCI+PHJlY3Q+PC9yZWN0Pjxmb3JlaWduT2JqZWN0IGhlaWdodD0iMjQuMDEwNzE1NDg0NjE5MTQiIHdpZHRoPSIzMC45Mzc1MDM4MTQ2OTcyNjYiPjxkaXYgc3R5bGU9ImRpc3BsYXk6IHRhYmxlLWNlbGw7IHdoaXRlLXNwYWNlOiBub3dyYXA7IGxpbmUtaGVpZ2h0OiAxLjU7IG1heC13aWR0aDogMjAwcHg7IHRleHQtYWxpZ246IGNlbnRlcjsiIHhtbG5zPSJodHRwOi8vd3d3LnczLm9yZy8xOTk5L3hodG1sIj48c3BhbiBjbGFzcz0ibm9kZUxhYmVsIj48cD5JRExFPC9wPjwvc3Bhbj48L2Rpdj48L2ZvcmVpZ25PYmplY3Q+PC9nPjwvZz48ZyB0cmFuc2Zvcm09InRyYW5zbGF0ZSgzOTYuNzY2OTM1MzQ4NTEwNzQsIDIwNC41MzAzNTkyNjgxODg0OCkiIGlkPSJzdGF0ZS1UQVNLX1NUQVJULTIiIGNsYXNzPSJub2RlICBzdGF0ZWRpYWdyYW0tc3RhdGUiPjxyZWN0IGhlaWdodD0iNDAuMDEwNzE1NDg0NjE5MTQiIHdpZHRoPSIxMDEuMjU4OTQxNjUwMzkwNjIiIHk9Ii0yMC4wMDUzNTc3NDIzMDk1NyIgeD0iLTUwLjYyOTQ3MDgyNTE5NTMxIiByeT0iNSIgcng9IjUiIHN0eWxlPSIiIGNsYXNzPSJiYXNpYyBsYWJlbC1jb250YWluZXIiPjwvcmVjdD48ZyB0cmFuc2Zvcm09InRyYW5zbGF0ZSgtNDIuNjI5NDcwODI1MTk1MzEsIC0xMi4wMDUzNTc3NDIzMDk1NykiIHN0eWxlPSIiIGNsYXNzPSJsYWJlbCI+PHJlY3Q+PC9yZWN0Pjxmb3JlaWduT2JqZWN0IGhlaWdodD0iMjQuMDEwNzE1NDg0NjE5MTQiIHdpZHRoPSI4NS4yNTg5NDE2NTAzOTA2MiI+PGRpdiBzdHlsZT0iZGlzcGxheTogdGFibGUtY2VsbDsgd2hpdGUtc3BhY2U6IG5vd3JhcDsgbGluZS1oZWlnaHQ6IDEuNTsgbWF4LXdpZHRoOiAyMDBweDsgdGV4dC1hbGlnbjogY2VudGVyOyIgeG1sbnM9Imh0dHA6Ly93d3cudzMub3JnLzE5OTkveGh0bWwiPjxzcGFuIGNsYXNzPSJub2RlTGFiZWwiPjxwPlRBU0tfU1RBUlQ8L3A+PC9zcGFuPjwvZGl2PjwvZm9yZWlnbk9iamVjdD48L2c+PC9nPjxnIHRyYW5zZm9ybT0idHJhbnNsYXRlKDM5Ni43NjY5MzUzNDg1MTA3NCwgMzUyLjI1NTM1Nzc0MjMwOTU3KSIgaWQ9InN0YXRlLVJVTk5JTkctMTIiIGNsYXNzPSJub2RlICBzdGF0ZWRpYWdyYW0tc3RhdGUiPjxyZWN0IGhlaWdodD0iNDAuMDEwNzE1NDg0NjE5MTQiIHdpZHRoPSI4MS41NzE0MzQwMjA5OTYxIiB5PSItMjAuMDA1MzU3NzQyMzA5NTciIHg9Ii00MC43ODU3MTcwMTA0OTgwNSIgcnk9IjUiIHJ4PSI1IiBzdHlsZT0iIiBjbGFzcz0iYmFzaWMgbGFiZWwtY29udGFpbmVyIj48L3JlY3Q+PGcgdHJhbnNmb3JtPSJ0cmFuc2xhdGUoLTMyLjc4NTcxNzAxMDQ5ODA1LCAtMTIuMDA1MzU3NzQyMzA5NTcpIiBzdHlsZT0iIiBjbGFzcz0ibGFiZWwiPjxyZWN0PjwvcmVjdD48Zm9yZWlnbk9iamVjdCBoZWlnaHQ9IjI0LjAxMDcxNTQ4NDYxOTE0IiB3aWR0aD0iNjUuNTcxNDM0MDIwOTk2MSI+PGRpdiBzdHlsZT0iZGlzcGxheTogdGFibGUtY2VsbDsgd2hpdGUtc3BhY2U6IG5vd3JhcDsgbGluZS1oZWlnaHQ6IDEuNTsgbWF4LXdpZHRoOiAyMDBweDsgdGV4dC1hbGlnbjogY2VudGVyOyIgeG1sbnM9Imh0dHA6Ly93d3cudzMub3JnLzE5OTkveGh0bWwiPjxzcGFuIGNsYXNzPSJub2RlTGFiZWwiPjxwPlJVTk5JTkc8L3A+PC9zcGFuPjwvZGl2PjwvZm9yZWlnbk9iamVjdD48L2c+PC9nPjxnIHRyYW5zZm9ybT0idHJhbnNsYXRlKDkwLjExMDc1NTkyMDQxMDE2LCA0OTkuOTgwMzU2MjE2NDMwNjYpIiBpZD0ic3RhdGUtTE9XX0JBVFRFUlktNiIgY2xhc3M9Im5vZGUgIHN0YXRlZGlhZ3JhbS1zdGF0ZSI+PHJlY3QgaGVpZ2h0PSI0MC4wMTA3MTU0ODQ2MTkxNCIgd2lkdGg9IjExOC4zNzUwMTUyNTg3ODkwNiIgeT0iLTIwLjAwNTM1Nzc0MjMwOTU3IiB4PSItNTkuMTg3NTA3NjI5Mzk0NTMiIHJ5PSI1IiByeD0iNSIgc3R5bGU9IiIgY2xhc3M9ImJhc2ljIGxhYmVsLWNvbnRhaW5lciI+PC9yZWN0PjxnIHRyYW5zZm9ybT0idHJhbnNsYXRlKC01MS4xODc1MDc2MjkzOTQ1MywgLTEyLjAwNTM1Nzc0MjMwOTU3KSIgc3R5bGU9IiIgY2xhc3M9ImxhYmVsIj48cmVjdD48L3JlY3Q+PGZvcmVpZ25PYmplY3QgaGVpZ2h0PSIyNC4wMTA3MTU0ODQ2MTkxNCIgd2lkdGg9IjEwMi4zNzUwMTUyNTg3ODkwNiI+PGRpdiBzdHlsZT0iZGlzcGxheTogdGFibGUtY2VsbDsgd2hpdGUtc3BhY2U6IG5vd3JhcDsgbGluZS1oZWlnaHQ6IDEuNTsgbWF4LXdpZHRoOiAyMDBweDsgdGV4dC1hbGlnbjogY2VudGVyOyIgeG1sbnM9Imh0dHA6Ly93d3cudzMub3JnLzE5OTkveGh0bWwiPjxzcGFuIGNsYXNzPSJub2RlTGFiZWwiPjxwPkxPV19CQVRURVJZPC9wPjwvc3Bhbj48L2Rpdj48L2ZvcmVpZ25PYmplY3Q+PC9nPjwvZz48ZyB0cmFuc2Zvcm09InRyYW5zbGF0ZSg0MzIuNzEwNTEwMjUzOTA2MjUsIDQ5OS45ODAzNTYyMTY0MzA2NikiIGlkPSJzdGF0ZS1SRUNPVkVSWS0xMyIgY2xhc3M9Im5vZGUgIHN0YXRlZGlhZ3JhbS1zdGF0ZSI+PHJlY3QgaGVpZ2h0PSI0MC4wMTA3MTU0ODQ2MTkxNCIgd2lkdGg9Ijg5LjU5MTA3MjA4MjUxOTUzIiB5PSItMjAuMDA1MzU3NzQyMzA5NTciIHg9Ii00NC43OTU1MzYwNDEyNTk3NjYiIHJ5PSI1IiByeD0iNSIgc3R5bGU9IiIgY2xhc3M9ImJhc2ljIGxhYmVsLWNvbnRhaW5lciI+PC9yZWN0PjxnIHRyYW5zZm9ybT0idHJhbnNsYXRlKC0zNi43OTU1MzYwNDEyNTk3NjYsIC0xMi4wMDUzNTc3NDIzMDk1NykiIHN0eWxlPSIiIGNsYXNzPSJsYWJlbCI+PHJlY3Q+PC9yZWN0Pjxmb3JlaWduT2JqZWN0IGhlaWdodD0iMjQuMDEwNzE1NDg0NjE5MTQiIHdpZHRoPSI3My41OTEwNzIwODI1MTk1MyI+PGRpdiBzdHlsZT0iZGlzcGxheTogdGFibGUtY2VsbDsgd2hpdGUtc3BhY2U6IG5vd3JhcDsgbGluZS1oZWlnaHQ6IDEuNTsgbWF4LXdpZHRoOiAyMDBweDsgdGV4dC1hbGlnbjogY2VudGVyOyIgeG1sbnM9Imh0dHA6Ly93d3cudzMub3JnLzE5OTkveGh0bWwiPjxzcGFuIGNsYXNzPSJub2RlTGFiZWwiPjxwPlJFQ09WRVJZPC9wPjwvc3Bhbj48L2Rpdj48L2ZvcmVpZ25PYmplY3Q+PC9nPjwvZz48ZyB0cmFuc2Zvcm09InRyYW5zbGF0ZSg3NDMuMzYzMTQ3NzM1NTk1NywgNDk5Ljk4MDM1NjIxNjQzMDY2KSIgaWQ9InN0YXRlLUNPTVBMRVRFRC0xMCIgY2xhc3M9Im5vZGUgIHN0YXRlZGlhZ3JhbS1zdGF0ZSI+PHJlY3QgaGVpZ2h0PSI0MC4wMTA3MTU0ODQ2MTkxNCIgd2lkdGg9IjEwMC45NTM1NzUxMzQyNzczNCIgeT0iLTIwLjAwNTM1Nzc0MjMwOTU3IiB4PSItNTAuNDc2Nzg3NTY3MTM4NjciIHJ5PSI1IiByeD0iNSIgc3R5bGU9IiIgY2xhc3M9ImJhc2ljIGxhYmVsLWNvbnRhaW5lciI+PC9yZWN0PjxnIHRyYW5zZm9ybT0idHJhbnNsYXRlKC00Mi40NzY3ODc1NjcxMzg2NywgLTEyLjAwNTM1Nzc0MjMwOTU3KSIgc3R5bGU9IiIgY2xhc3M9ImxhYmVsIj48cmVjdD48L3JlY3Q+PGZvcmVpZ25PYmplY3QgaGVpZ2h0PSIyNC4wMTA3MTU0ODQ2MTkxNCIgd2lkdGg9Ijg0Ljk1MzU3NTEzNDI3NzM0Ij48ZGl2IHN0eWxlPSJkaXNwbGF5OiB0YWJsZS1jZWxsOyB3aGl0ZS1zcGFjZTogbm93cmFwOyBsaW5lLWhlaWdodDogMS41OyBtYXgtd2lkdGg6IDIwMHB4OyB0ZXh0LWFsaWduOiBjZW50ZXI7IiB4bWxucz0iaHR0cDovL3d3dy53My5vcmcvMTk5OS94aHRtbCI+PHNwYW4gY2xhc3M9Im5vZGVMYWJlbCI+PHA+Q09NUExFVEVEPC9wPjwvc3Bhbj48L2Rpdj48L2ZvcmVpZ25PYmplY3Q+PC9nPjwvZz48ZyB0cmFuc2Zvcm09InRyYW5zbGF0ZSg5MC4xMTA3NTU5MjA0MTAxNiwgNjMwLjEwNTM1NjIxNjQzMDcpIiBpZD0ic3RhdGUtUEFVU0VfVEFTSy03IiBjbGFzcz0ibm9kZSAgc3RhdGVkaWFncmFtLXN0YXRlIj48cmVjdCBoZWlnaHQ9IjQwLjAxMDcxNTQ4NDYxOTE0IiB3aWR0aD0iMTAxLjY2MDcyODQ1NDU4OTg0IiB5PSItMjAuMDA1MzU3NzQyMzA5NTciIHg9Ii01MC44MzAzNjQyMjcyOTQ5MiIgcnk9IjUiIHJ4PSI1IiBzdHlsZT0iIiBjbGFzcz0iYmFzaWMgbGFiZWwtY29udGFpbmVyIj48L3JlY3Q+PGcgdHJhbnNmb3JtPSJ0cmFuc2xhdGUoLTQyLjgzMDM2NDIyNzI5NDkyLCAtMTIuMDA1MzU3NzQyMzA5NTcpIiBzdHlsZT0iIiBjbGFzcz0ibGFiZWwiPjxyZWN0PjwvcmVjdD48Zm9yZWlnbk9iamVjdCBoZWlnaHQ9IjI0LjAxMDcxNTQ4NDYxOTE0IiB3aWR0aD0iODUuNjYwNzI4NDU0NTg5ODQiPjxkaXYgc3R5bGU9ImRpc3BsYXk6IHRhYmxlLWNlbGw7IHdoaXRlLXNwYWNlOiBub3dyYXA7IGxpbmUtaGVpZ2h0OiAxLjU7IG1heC13aWR0aDogMjAwcHg7IHRleHQtYWxpZ246IGNlbnRlcjsiIHhtbG5zPSJodHRwOi8vd3d3LnczLm9yZy8xOTk5L3hodG1sIj48c3BhbiBjbGFzcz0ibm9kZUxhYmVsIj48cD5QQVVTRV9UQVNLPC9wPjwvc3Bhbj48L2Rpdj48L2ZvcmVpZ25PYmplY3Q+PC9nPjwvZz48ZyB0cmFuc2Zvcm09InRyYW5zbGF0ZSg1NDMuMDA3OTM2NDc3NjYxMSwgNzQyLjYzMDM1Nzc0MjMwOTYpIiBpZD0ic3RhdGUtQ0hBUkdJTkctOCIgY2xhc3M9Im5vZGUgIHN0YXRlZGlhZ3JhbS1zdGF0ZSI+PHJlY3QgaGVpZ2h0PSI0MC4wMTA3MTU0ODQ2MTkxNCIgd2lkdGg9IjkxLjA2OTY1NjM3MjA3MDMxIiB5PSItMjAuMDA1MzU3NzQyMzA5NTciIHg9Ii00NS41MzQ4MjgxODYwMzUxNTYiIHJ5PSI1IiByeD0iNSIgc3R5bGU9IiIgY2xhc3M9ImJhc2ljIGxhYmVsLWNvbnRhaW5lciI+PC9yZWN0PjxnIHRyYW5zZm9ybT0idHJhbnNsYXRlKC0zNy41MzQ4MjgxODYwMzUxNTYsIC0xMi4wMDUzNTc3NDIzMDk1NykiIHN0eWxlPSIiIGNsYXNzPSJsYWJlbCI+PHJlY3Q+PC9yZWN0Pjxmb3JlaWduT2JqZWN0IGhlaWdodD0iMjQuMDEwNzE1NDg0NjE5MTQiIHdpZHRoPSI3NS4wNjk2NTYzNzIwNzAzMSI+PGRpdiBzdHlsZT0iZGlzcGxheTogdGFibGUtY2VsbDsgd2hpdGUtc3BhY2U6IG5vd3JhcDsgbGluZS1oZWlnaHQ6IDEuNTsgbWF4LXdpZHRoOiAyMDBweDsgdGV4dC1hbGlnbjogY2VudGVyOyIgeG1sbnM9Imh0dHA6Ly93d3cudzMub3JnLzE5OTkveGh0bWwiPjxzcGFuIGNsYXNzPSJub2RlTGFiZWwiPjxwPkNIQVJHSU5HPC9wPjwvc3Bhbj48L2Rpdj48L2ZvcmVpZ25PYmplY3Q+PC9nPjwvZz48ZyB0cmFuc2Zvcm09InRyYW5zbGF0ZSg3ODYuMTAxNTQxNTE5MTY1LCA2MzAuMTA1MzU2MjE2NDMwNykiIGlkPSJzdGF0ZS1DSEFSR0lOR19QUk9NTy0xMSIgY2xhc3M9Im5vZGUgIHN0YXRlZGlhZ3JhbS1zdGF0ZSI+PHJlY3QgaGVpZ2h0PSI0MC4wMTA3MTU0ODQ2MTkxNCIgd2lkdGg9IjE1MC41OTgyMjA4MjUxOTUzIiB5PSItMjAuMDA1MzU3NzQyMzA5NTciIHg9Ii03NS4yOTkxMTA0MTI1OTc2NiIgcnk9IjUiIHJ4PSI1IiBzdHlsZT0iIiBjbGFzcz0iYmFzaWMgbGFiZWwtY29udGFpbmVyIj48L3JlY3Q+PGcgdHJhbnNmb3JtPSJ0cmFuc2xhdGUoLTY3LjI5OTExMDQxMjU5NzY2LCAtMTIuMDA1MzU3NzQyMzA5NTcpIiBzdHlsZT0iIiBjbGFzcz0ibGFiZWwiPjxyZWN0PjwvcmVjdD48Zm9yZWlnbk9iamVjdCBoZWlnaHQ9IjI0LjAxMDcxNTQ4NDYxOTE0IiB3aWR0aD0iMTM0LjU5ODIyMDgyNTE5NTMiPjxkaXYgc3R5bGU9ImRpc3BsYXk6IHRhYmxlLWNlbGw7IHdoaXRlLXNwYWNlOiBub3dyYXA7IGxpbmUtaGVpZ2h0OiAxLjU7IG1heC13aWR0aDogMjAwcHg7IHRleHQtYWxpZ246IGNlbnRlcjsiIHhtbG5zPSJodHRwOi8vd3d3LnczLm9yZy8xOTk5L3hodG1sIj48c3BhbiBjbGFzcz0ibm9kZUxhYmVsIj48cD5DSEFSR0lOR19QUk9NTzwvcD48L3NwYW4+PC9kaXY+PC9mb3JlaWduT2JqZWN0PjwvZz48L2c+PC9nPjwvZz48L2c+PC9zdmc+;" vertex="1" parent="1">
                        <mxGeometry x="-1460" y="-1770" width="1065.668212890625" height="770.6358032226562" as="geometry"/>
                    </mxCell>
                </UserObject>
            </root>
        </mxGraphModel>
    </diagram>
</mxfile>